<svg width="64" height="72" viewBox="0 0 64 72" fill="none" xmlns="http://www.w3.org/2000/svg">
<path d="M63.8251 18.271V43.694C63.8251 53.7844 55.4047 61.9651 45.0187 61.9651H43.1165L33.4026 71.3963C33.0222 71.7659 32.4959 72 31.9126 72C31.3736 72 30.8854 71.809 30.5113 71.4887L30.3464 71.3285L30.3401 71.3224L20.7086 61.9651H18.8001C8.4204 61.9651 0 53.7844 0 43.694V18.271C0 8.1807 8.4204 0 18.8064 0H45.0187C55.4047 0 63.8251 8.1807 63.8251 18.271Z" fill="#FA4747"/>
<line x1="18.5317" y1="18.8365" x2="46.8215" y2="44.6223" stroke="white" stroke-width="5" stroke-linecap="round"/>
<line x1="47.6394" y1="19.3961" x2="18.6366" y2="44.3772" stroke="white" stroke-width="5" stroke-linecap="round" stroke-linejoin="round"/>
</svg>
