<svg width="40" height="47" viewBox="0 0 40 47" fill="none" xmlns="http://www.w3.org/2000/svg">
<path d="M40 11.9269V28.5225C40 35.1093 34.7228 40.4494 28.2138 40.4494H27.0217L20.9338 46.6059C20.6954 46.8472 20.3656 47 20 47C19.6622 47 19.3562 46.8753 19.1218 46.6662L19.0185 46.5617L19.0145 46.5577L12.9783 40.4494H11.7822C5.27717 40.4494 0 35.1093 0 28.5225V11.9269C0 5.34018 5.27717 0 11.7862 0H28.2138C34.7228 0 40 5.34018 40 11.9269Z" fill="#FFD152"/>
<path d="M9.31303 22.9902C8.15267 22.9902 7.49131 24.3282 8.16455 25.2944C10.7823 29.0578 15.1109 31.5114 20.0018 31.5114C24.8927 31.5114 29.2173 29.0537 31.835 25.2944C32.5083 24.3282 31.8469 22.9902 30.6866 22.9902H9.31303Z" fill="white"/>
<path d="M16.1087 17.2948H9.10693V13.7214C9.10693 11.7487 10.6752 10.1479 12.6078 10.1479C14.5404 10.1479 16.1087 11.7487 16.1087 13.7214V17.2948Z" fill="white"/>
<path d="M30.8963 17.2948H23.8945V13.7214C23.8945 11.7487 25.4628 10.1479 27.3954 10.1479C29.328 10.1479 30.8963 11.7487 30.8963 13.7214V17.2948Z" fill="white"/>
</svg>
